<!-- Generator: Adobe Illustrator 21.0.2, SVG Export Plug-In  -->
<svg version="1.1"
	 xmlns="http://www.w3.org/2000/svg" xmlns:xlink="http://www.w3.org/1999/xlink" xmlns:a="http://ns.adobe.com/AdobeSVGViewerExtensions/3.0/"
	 x="0px" y="0px" width="65.4px" height="91.5px" viewBox="0 0 65.4 91.5" style="enable-background:new 0 0 65.4 91.5;"
	 xml:space="preserve">
<style type="text/css">
	.st0{fill:#612694;}
	.st1{fill:#FFFFFF;}
	.st2{fill:url(#SVGID_1_);}
	.st3{fill:url(#SVGID_2_);}
	.st4{fill:url(#SVGID_3_);}
	.st5{fill:url(#SVGID_4_);}
	.st6{fill:url(#SVGID_5_);}
	.st7{fill:url(#SVGID_6_);}
</style>
<defs>
</defs>
<g>
	<g>
		<path class="st0" d="M9,50c-1.1-0.1-2.2-0.7-2.9-1.8c-1.1-1.8-0.5-4,1.2-5.1l52.4-32c1.8-1.1,4-0.5,5.1,1.2c1.1,1.8,0.5,4-1.2,5.1
			l-52.4,32C10.6,49.9,9.8,50,9,50z"/>
	</g>
	<g>
		<path class="st0" d="M9,70.5c-1.1-0.1-2.2-0.7-2.9-1.8c-1.1-1.8-0.5-4,1.2-5.1l52.4-32c1.8-1.1,4-0.5,5.1,1.2
			c1.1,1.8,0.5,4-1.2,5.1L11.3,70C10.6,70.4,9.8,70.5,9,70.5z"/>
	</g>
	<g>
		<path class="st0" d="M9,91c-1.1-0.1-2.2-0.7-2.9-1.8c-1.1-1.8-0.5-4,1.2-5.1l52.4-32c1.8-1.1,4-0.5,5.1,1.2c1.1,1.8,0.5,4-1.2,5.1
			l-52.4,32C10.6,90.9,9.8,91,9,91z"/>
	</g>
	<path class="st1" d="M51.6,51.5c4.9-4.5,7.4-10,7.4-16.4V21.8c0-6.6-1.6-11.8-4.7-15.5C50.6,2.1,45,0,37.3,0h-8H15.6H0v14.1h15.6
		v77.4h13.8V57h8c0.4,0,0.9,0,1.2,0l8.4,34.5h14.9L51.6,51.5z M45.6,35.4c0,2.2-0.8,4.1-2.3,5.6c-1.5,1.6-3.4,2.3-5.6,2.3h-8.3V14.1
		h8.3c5.3,0,7.9,2.7,7.9,8V35.4z"/>
	<g>
		<path class="st1" d="M1.6,21.9c0.1,0,0.1,0,0.2-0.1c0.1,0,0.1,0,0.2-0.1c0.1,0,0.2,0,0.3,0c0.1,0,0.3,0,0.5,0h1.7
			c0.5,0,0.8-0.1,1-0.3c0.2-0.2,0.3-0.6,0.3-1v-0.7H1.6v-2.1h10.5v3.1c0,1.1-0.2,1.9-0.6,2.3c-0.4,0.5-1,0.7-1.8,0.7H8.9
			c-1.1,0-1.8-0.5-2.1-1.4c-0.2,0.5-0.4,0.9-0.8,1.1c-0.4,0.2-0.9,0.3-1.4,0.3H2.9c-0.3,0-0.5,0-0.7,0c-0.2,0-0.4,0.1-0.6,0.2V21.9z
			 M10.6,19.7H7.4v0.8c0,0.4,0.1,0.7,0.2,0.9c0.2,0.2,0.5,0.3,0.9,0.3h1c0.4,0,0.7-0.1,0.8-0.3c0.2-0.2,0.3-0.4,0.3-0.8V19.7z"/>
		<path class="st1" d="M7.7,31.9v2.8H6.2v-2.8H3.1v3.6H1.6v-5.6h10.5v5.6h-1.5v-3.6H7.7z"/>
		<path class="st1" d="M7.7,43.5v2.8H6.2v-2.8H3.1v3.6H1.6v-5.6h10.5v5.6h-1.5v-3.6H7.7z"/>
		<path class="st1" d="M12.1,53.1v2.1h-9v3.4H1.6v-5.5H12.1z"/>
		<path class="st1" d="M12.1,64.1v2.1H1.6v-2.1H12.1z"/>
		<path class="st1" d="M9.6,72.1c0.9,0,1.5,0.3,2,0.8c0.5,0.5,0.7,1.3,0.7,2.3s-0.2,1.8-0.7,2.3c-0.5,0.5-1.1,0.8-2,0.8H9.3v-2h0.4
			c0.4,0,0.6-0.1,0.8-0.3s0.2-0.4,0.2-0.8s-0.1-0.6-0.2-0.8c-0.2-0.2-0.4-0.3-0.8-0.3c-0.4,0-0.7,0.1-1,0.3S8.2,74.9,8,75.2
			c-0.2,0.3-0.5,0.6-0.7,1c-0.2,0.3-0.5,0.7-0.8,1c-0.3,0.3-0.6,0.5-1,0.8c-0.4,0.2-0.8,0.3-1.3,0.3c-0.9,0-1.5-0.3-2-0.8
			c-0.5-0.5-0.7-1.3-0.7-2.3s0.2-1.8,0.7-2.3c0.5-0.5,1.1-0.8,2-0.8h0.6v2H4c-0.4,0-0.6,0.1-0.8,0.3C3.1,74.5,3,74.7,3,75.1
			s0.1,0.6,0.2,0.8C3.4,76,3.6,76.1,4,76.1c0.4,0,0.7-0.1,1-0.3c0.3-0.2,0.5-0.5,0.8-0.8c0.2-0.3,0.5-0.6,0.7-1
			c0.2-0.3,0.5-0.7,0.8-1c0.3-0.3,0.6-0.6,1-0.8C8.7,72.2,9.1,72.1,9.6,72.1z"/>
		<path class="st1" d="M12.1,83.5v6.4h-1.5v-2.2h-9v-2.1h9v-2.2H12.1z"/>
	</g>
	
		<linearGradient id="SVGID_1_" gradientUnits="userSpaceOnUse" x1="-209.8694" y1="277.9919" x2="-239.1635" y2="278.1565" gradientTransform="matrix(-8.979300e-11 1 1 8.979300e-11 -255.6247 247.3536)">
		<stop  offset="0" style="stop-color:#F3F3F3;stop-opacity:0"/>
		<stop  offset="2.917427e-02" style="stop-color:#E3DDE8;stop-opacity:0"/>
		<stop  offset="0.1169" style="stop-color:#B79FC9;stop-opacity:0"/>
		<stop  offset="0.1972" style="stop-color:#946EB1;stop-opacity:0"/>
		<stop  offset="0.2672" style="stop-color:#7B4AA0;stop-opacity:0"/>
		<stop  offset="0.3243" style="stop-color:#6C3595;stop-opacity:0"/>
		<stop  offset="0.3614" style="stop-color:#662D91;stop-opacity:0"/>
		<stop  offset="0.4656" style="stop-color:#5F2A88;stop-opacity:0.1631"/>
		<stop  offset="0.6383" style="stop-color:#4D226E;stop-opacity:0.4336"/>
		<stop  offset="0.8568" style="stop-color:#2F1446;stop-opacity:0.7758"/>
		<stop  offset="1" style="stop-color:#190A27"/>
	</linearGradient>
	<rect x="15.6" y="14.1" class="st2" width="13.8" height="14.6"/>
	
		<linearGradient id="SVGID_2_" gradientUnits="userSpaceOnUse" x1="-160.0216" y1="277.9669" x2="-199.1758" y2="278.1868" gradientTransform="matrix(-8.979300e-11 1 1 8.979300e-11 -255.6247 247.3536)">
		<stop  offset="0" style="stop-color:#F3F3F3;stop-opacity:0"/>
		<stop  offset="2.917427e-02" style="stop-color:#E3DDE8;stop-opacity:0"/>
		<stop  offset="0.1169" style="stop-color:#B79FC9;stop-opacity:0"/>
		<stop  offset="0.1972" style="stop-color:#946EB1;stop-opacity:0"/>
		<stop  offset="0.2672" style="stop-color:#7B4AA0;stop-opacity:0"/>
		<stop  offset="0.3243" style="stop-color:#6C3595;stop-opacity:0"/>
		<stop  offset="0.3614" style="stop-color:#662D91;stop-opacity:0"/>
		<stop  offset="0.4656" style="stop-color:#5F2A88;stop-opacity:0.1631"/>
		<stop  offset="0.6383" style="stop-color:#4D226E;stop-opacity:0.4336"/>
		<stop  offset="0.8568" style="stop-color:#2F1446;stop-opacity:0.7758"/>
		<stop  offset="1" style="stop-color:#190A27"/>
	</linearGradient>
	<rect x="15.6" y="57" class="st3" width="13.8" height="19.6"/>
	
		<linearGradient id="SVGID_3_" gradientUnits="userSpaceOnUse" x1="-54.214" y1="-60.5922" x2="-80.8475" y2="-60.4425" gradientTransform="matrix(1.795860e-10 -1 -1 -1.795860e-10 -38.0619 -30.4317)">
		<stop  offset="0" style="stop-color:#F3F3F3;stop-opacity:0"/>
		<stop  offset="2.917427e-02" style="stop-color:#E3DDE8;stop-opacity:0"/>
		<stop  offset="0.1169" style="stop-color:#B79FC9;stop-opacity:0"/>
		<stop  offset="0.1972" style="stop-color:#946EB1;stop-opacity:0"/>
		<stop  offset="0.2672" style="stop-color:#7B4AA0;stop-opacity:0"/>
		<stop  offset="0.3243" style="stop-color:#6C3595;stop-opacity:0"/>
		<stop  offset="0.3614" style="stop-color:#662D91;stop-opacity:0"/>
		<stop  offset="0.4656" style="stop-color:#5F2A88;stop-opacity:0.1631"/>
		<stop  offset="0.6383" style="stop-color:#4D226E;stop-opacity:0.4336"/>
		<stop  offset="0.8568" style="stop-color:#2F1446;stop-opacity:0.7758"/>
		<stop  offset="1" style="stop-color:#190A27"/>
	</linearGradient>
	<rect x="15.6" y="30.1" class="st4" width="13.8" height="13.3"/>
</g>
</svg>
