<!-- Generator: Adobe Illustrator 21.0.2, SVG Export Plug-In  -->
<svg version="1.1"
	 xmlns="http://www.w3.org/2000/svg" xmlns:xlink="http://www.w3.org/1999/xlink" xmlns:a="http://ns.adobe.com/AdobeSVGViewerExtensions/3.0/"
	 x="0px" y="0px" width="83.7px" height="72.5px" viewBox="0 0 83.7 72.5" style="enable-background:new 0 0 83.7 72.5;"
	 xml:space="preserve">
<style type="text/css">
	.st0{fill:#FFFFFF;}
</style>
<defs>
</defs>
<g>
	<path class="st0" d="M74.4,29H9.3C4.2,29,0,32.2,0,36.2c0,4,4.2,7.2,9.3,7.2h65.1c5.1,0,9.3-3.2,9.3-7.2C83.7,32.2,79.5,29,74.4,29
		z"/>
	<path class="st0" d="M9.3,14.5h65.1c5.1,0,9.3-3.2,9.3-7.2c0-4-4.2-7.2-9.3-7.2H9.3C4.2,0,0,3.2,0,7.2C0,11.3,4.2,14.5,9.3,14.5z"
		/>
	<path class="st0" d="M74.4,58H9.3C4.2,58,0,61.2,0,65.2c0,4,4.2,7.2,9.3,7.2h65.1c5.1,0,9.3-3.2,9.3-7.2C83.7,61.2,79.5,58,74.4,58
		z"/>
</g>
</svg>
