<!-- Generator: Adobe Illustrator 21.0.2, SVG Export Plug-In  -->
<svg version="1.1"
	 xmlns="http://www.w3.org/2000/svg" xmlns:xlink="http://www.w3.org/1999/xlink" xmlns:a="http://ns.adobe.com/AdobeSVGViewerExtensions/3.0/"
	 x="0px" y="0px" width="93.7px" height="93.7px" viewBox="0 0 93.7 93.7" style="enable-background:new 0 0 93.7 93.7;"
	 xml:space="preserve">
<style type="text/css">
	.st0{fill:#FFFFFF;}
</style>
<defs>
</defs>
<path class="st0" d="M62.2,46.8l26.7-26.7c5.4-5.4,6.4-13.3,2.2-17.5C86.8-1.6,79-0.6,73.6,4.8L46.8,31.5L20.1,4.8
	C14.7-0.6,6.9-1.6,2.6,2.6c-4.2,4.2-3.3,12.1,2.2,17.5l26.7,26.7L4.8,73.6C-0.6,79-1.6,86.8,2.6,91c4.2,4.2,12.1,3.3,17.5-2.2
	l26.7-26.7l26.7,26.7C79,94.3,86.8,95.3,91,91c4.2-4.2,3.3-12.1-2.2-17.5L62.2,46.8z"/>
</svg>
