<!-- Generator: Adobe Illustrator 21.0.2, SVG Export Plug-In  -->
<svg version="1.1"
	 xmlns="http://www.w3.org/2000/svg" xmlns:xlink="http://www.w3.org/1999/xlink" xmlns:a="http://ns.adobe.com/AdobeSVGViewerExtensions/3.0/"
	 x="0px" y="0px" width="17.2px" height="23.2px" viewBox="0 0 17.2 23.2" style="enable-background:new 0 0 17.2 23.2;"
	 xml:space="preserve">
<style type="text/css">
	.st0{fill:#190A27;}
</style>
<defs>
</defs>
<g>
	<g>
		<path class="st0" d="M1,11.4c-0.3,0-0.6-0.2-0.8-0.5C-0.2,10.3,0,9.7,0.5,9.4l15.1-9.2c0.5-0.3,1.2-0.1,1.5,0.4
			C17.4,1,17.2,1.7,16.7,2L1.6,11.2C1.4,11.3,1.2,11.4,1,11.4z"/>
	</g>
	<g>
		<path class="st0" d="M1,17.3c-0.3,0-0.6-0.2-0.8-0.5c-0.3-0.5-0.1-1.2,0.4-1.5l15.1-9.2c0.5-0.3,1.2-0.1,1.5,0.4
			c0.3,0.5,0.1,1.2-0.4,1.5L1.6,17.1C1.4,17.2,1.2,17.3,1,17.3z"/>
	</g>
	<g>
		<path class="st0" d="M1,23.2c-0.3,0-0.6-0.2-0.8-0.5c-0.3-0.5-0.1-1.2,0.4-1.5L15.6,12c0.5-0.3,1.2-0.1,1.5,0.4
			c0.3,0.5,0.1,1.2-0.4,1.5L1.6,23C1.4,23.1,1.2,23.2,1,23.2z"/>
	</g>
</g>
</svg>
