<!-- Generator: Adobe Illustrator 21.0.2, SVG Export Plug-In  -->
<svg version="1.1"
	 xmlns="http://www.w3.org/2000/svg" xmlns:xlink="http://www.w3.org/1999/xlink" xmlns:a="http://ns.adobe.com/AdobeSVGViewerExtensions/3.0/"
	 x="0px" y="0px" width="20px" height="26.8px" viewBox="0 0 20 26.8" style="enable-background:new 0 0 20 26.8;"
	 xml:space="preserve">
<style type="text/css">
	.st0{fill:#612694;}
</style>
<defs>
</defs>
<g>
	<g>
		<path class="st0" d="M1.1,13.2c-0.4,0-0.7-0.2-1-0.6C-0.2,12,0,11.2,0.6,10.9L18.1,0.2c0.6-0.4,1.3-0.2,1.7,0.4
			c0.4,0.6,0.2,1.3-0.4,1.7L1.9,13C1.7,13.1,1.4,13.2,1.1,13.2z"/>
	</g>
	<g>
		<path class="st0" d="M1.1,20c-0.4,0-0.7-0.2-1-0.6c-0.4-0.6-0.2-1.3,0.4-1.7L18.1,7c0.6-0.4,1.3-0.2,1.7,0.4
			c0.4,0.6,0.2,1.3-0.4,1.7L1.9,19.8C1.7,20,1.4,20,1.1,20z"/>
	</g>
	<g>
		<path class="st0" d="M1.1,26.8c-0.4,0-0.7-0.2-1-0.6c-0.4-0.6-0.2-1.3,0.4-1.7l17.5-10.7c0.6-0.4,1.3-0.2,1.7,0.4
			c0.4,0.6,0.2,1.3-0.4,1.7L1.9,26.7C1.7,26.8,1.4,26.8,1.1,26.8z"/>
	</g>
</g>
</svg>
