<!-- Generator: Adobe Illustrator 21.0.2, SVG Export Plug-In  -->
<svg version="1.1"
	 xmlns="http://www.w3.org/2000/svg" xmlns:xlink="http://www.w3.org/1999/xlink" xmlns:a="http://ns.adobe.com/AdobeSVGViewerExtensions/3.0/"
	 x="0px" y="0px" width="90.5px" height="52.9px" viewBox="0 0 90.5 52.9" style="enable-background:new 0 0 90.5 52.9;"
	 xml:space="preserve">
<style type="text/css">
	.st0{fill:#190A27;}
</style>
<defs>
</defs>
<path class="st0" d="M88.7,3.8c-2.5-2.6-6.6-2.7-9.2-0.2L44.6,37L11.2,2C8.7-0.6,4.6-0.7,2,1.8C-0.6,4.3-0.7,8.4,1.8,11l36.9,38.7
	c0.2,0.4,0.4,0.8,0.7,1.2c1.3,1.3,3,2,4.7,2c0.1,0,0.1,0,0.2,0c0.1,0,0.1,0,0.2,0c1.6,0,3.2-0.6,4.5-1.8c0.4-0.3,0.6-0.8,0.8-1.2
	L88.5,13C91.1,10.6,91.2,6.4,88.7,3.8z"/>
</svg>
