<!-- Generator: Adobe Illustrator 21.0.2, SVG Export Plug-In  -->
<svg version="1.1"
	 xmlns="http://www.w3.org/2000/svg" xmlns:xlink="http://www.w3.org/1999/xlink" xmlns:a="http://ns.adobe.com/AdobeSVGViewerExtensions/3.0/"
	 x="0px" y="0px" width="14.4px" height="14.3px" viewBox="0 0 14.4 14.3" style="enable-background:new 0 0 14.4 14.3;"
	 xml:space="preserve">
<style type="text/css">
	.st0{fill:#190A27;}
</style>
<defs>
</defs>
<g>
	<g>
		<path class="st0" d="M14,12l-3.3-3.3c-0.5,0.8-1.1,1.4-1.9,1.9l3.3,3.3c0.5,0.5,1.4,0.5,1.9,0C14.5,13.4,14.5,12.6,14,12z"/>
		<path class="st0" d="M10.8,5.4c0-3-2.4-5.4-5.4-5.4C2.4,0,0,2.4,0,5.4c0,3,2.4,5.4,5.4,5.4C8.4,10.8,10.8,8.4,10.8,5.4z M5.4,9.4
			c-2.2,0-4.1-1.8-4.1-4c0-2.2,1.8-4,4.1-4c2.2,0,4.1,1.8,4.1,4C9.5,7.6,7.6,9.4,5.4,9.4z"/>
		<path class="st0" d="M2.3,5.4h0.9c0-1.2,1-2.2,2.3-2.2V2.2C3.7,2.2,2.3,3.6,2.3,5.4z"/>
	</g>
</g>
</svg>
