<!-- Generator: Adobe Illustrator 21.0.2, SVG Export Plug-In  -->
<svg version="1.1"
	 xmlns="http://www.w3.org/2000/svg" xmlns:xlink="http://www.w3.org/1999/xlink" xmlns:a="http://ns.adobe.com/AdobeSVGViewerExtensions/3.0/"
	 x="0px" y="0px" width="86.7px" height="64.1px" viewBox="0 0 86.7 64.1" style="enable-background:new 0 0 86.7 64.1;"
	 xml:space="preserve">
<style type="text/css">
	.st0{fill:#190A27;}
</style>
<defs>
</defs>
<g>
	<g>
		<circle class="st0" cx="45.1" cy="26.1" r="4.4"/>
		<circle class="st0" cx="62.8" cy="26.1" r="4.4"/>
		<circle class="st0" cx="27.4" cy="26.1" r="4.4"/>
		<path class="st0" d="M79.4,0H7.2C3.3,0,0,3.3,0,7.2v37.1c0,4,3.3,7.2,7.2,7.2h49.3L63,62c0.9,1.3,2.3,2,3.8,2
			c0.4,0,0.9-0.1,1.3-0.2c1.7-0.5,3-2,3.2-3.7l3.1-8.6h5c4,0,7.2-3.3,7.2-7.2V7.2C86.7,3.3,83.4,0,79.4,0z M80.9,44.3
			c0,0.8-0.7,1.5-1.5,1.5h-9.2l-3.8,10.8l-6.9-10.8H7.2c-0.8,0-1.5-0.7-1.5-1.5V7.2c0-0.8,0.7-1.5,1.5-1.5h72.2
			c0.8,0,1.5,0.7,1.5,1.5V44.3z"/>
	</g>
</g>
</svg>
