<!-- Generator: Adobe Illustrator 21.0.2, SVG Export Plug-In  -->
<svg version="1.1"
	 xmlns="http://www.w3.org/2000/svg" xmlns:xlink="http://www.w3.org/1999/xlink" xmlns:a="http://ns.adobe.com/AdobeSVGViewerExtensions/3.0/"
	 x="0px" y="0px" width="19.5px" height="19.5px" viewBox="0 0 19.5 19.5" style="enable-background:new 0 0 19.5 19.5;"
	 xml:space="preserve">
<style type="text/css">
	.st0{fill:#FFF;}
</style>
<defs>
</defs>
<path class="st0" d="M11.5,9.8l7.6-7.6c0.5-0.5,0.5-1.3,0-1.8s-1.3-0.5-1.8,0L9.8,8L2.1,0.4c-0.5-0.5-1.3-0.5-1.8,0s-0.5,1.3,0,1.8
	L8,9.8l-7.6,7.6c-0.5,0.5-0.5,1.3,0,1.8c0.2,0.2,0.6,0.4,0.9,0.4s0.6-0.1,0.9-0.4l7.6-7.6l7.6,7.6c0.2,0.2,0.6,0.4,0.9,0.4
	s0.6-0.1,0.9-0.4c0.5-0.5,0.5-1.3,0-1.8L11.5,9.8z"/>
</svg>
