<!-- Generator: Adobe Illustrator 21.0.2, SVG Export Plug-In  -->
<svg version="1.1"
	 xmlns="http://www.w3.org/2000/svg" xmlns:xlink="http://www.w3.org/1999/xlink" xmlns:a="http://ns.adobe.com/AdobeSVGViewerExtensions/3.0/"
	 x="0px" y="0px" width="10.4px" height="9.9px" viewBox="0 0 10.4 9.9" style="enable-background:new 0 0 10.4 9.9;"
	 xml:space="preserve">
<style type="text/css">
	.st0{fill:#612694;}
</style>
<defs>
</defs>
<path class="st0" d="M10.2,4.2l-2.7,2l1,3.2c0.1,0.2,0,0.4-0.2,0.5C8.3,9.9,8.2,9.9,8.2,9.9c-0.1,0-0.2,0-0.2-0.1l-2.7-2l-2.7,2
	C2.3,9.9,2.1,9.9,2,9.8C1.9,9.7,1.8,9.5,1.8,9.3l1-3.2l-2.7-2C0,4.1,0,3.9,0,3.7c0.1-0.2,0.2-0.3,0.4-0.3h3.3l1-3.2
	C4.9,0.1,5,0,5.2,0c0.2,0,0.3,0.1,0.4,0.3l1,3.2H10c0.2,0,0.3,0.1,0.4,0.3C10.4,3.9,10.4,4.1,10.2,4.2z"/>
</svg>
